PathFileType	4	(X/Y/Z)	C:/Users/beibeiliu/ov580/test_trc/User2\sequence.16_training_dense_left.trc
DataRate	CameraRate	NumFrames	NumMarkers	Units	OrigDataRate	OrigDataStartFrame	OrigNumFrames
120	120	22	19	mm	120	155	411
Frame#	Time	ThumbCMC			ThumbMCP			ThumbIP			ThumbTip			IndexMCP			IndexPIP			IndexTip			MiddleMCP			MiddlePIP			MiddleTip			RingMCP			RingPIP			RingTip			PinkyMCP			PinkyPIP			PinkyTip			BackHand1			BackHand2			BackHand3	
		X0	Y0	Z0	X1	Y1	Z1	X2	Y2	Z2	X3	Y3	Z3	X4	Y4	Z4	X5	Y5	Z5	X6	Y6	Z6	X7	Y7	Z7	X8	Y8	Z8	X9	Y9	Z9	X10	Y10	Z10	X11	Y11	Z11	X12	Y12	Z12	X13	Y13	Z13	X14	Y14	Z14	X15	Y15	Z15	X16	Y16	Z16	X17	Y17	Z17	X18	Y18	Z18	
154	1.28333	-138.756	79.9016	85.3227	-119.773	98.0173	62.9245	-107.034	116.43	36.1468	-99.4722	121.271	15.6454	-192.276	99.8791	26.1579	-202.584	110.369	1.43749	-205.809	118.583	-24.534	-196.726	67.5783	5.73962	-173.855	66.1941	-21.3877	-144.231	58.8274	8.01827	-192.759	49.2759	6.48337	-168.493	42.959	-16.1157	-148.113	39.7149	11.9215	-190.405	22.9701	14.3252	-166.909	29.7784	-9.79868	-145.14	23.6423	9.38854	-191.555	35.5602	65.7794	-183.688	26.0578	99.2594	-177.591	65.9584	84.6097	
155	1.29167	-129.933	77.9522	87.9809	-113.411	89.688	60.4096	-94.8263	108.069	38.4806	-83.5004	119.247	16.1403	-178.364	108.535	30.4748	-188.253	127.048	5.25456	-192.225	135.484	-22.3841	-191.729	81.8249	7.78668	-166.974	73.7607	-19.2406	-144.767	58.7406	7.30695	-191.739	61.2892	5.33132	-171.719	51.0072	-17.4888	-149.554	43.3183	12.3078	-193.767	37.807	11.2528	-171.065	33.4443	-10.0664	-148.501	25.8137	10.4956	-192.696	46.8811	66.6768	-185.887	36.4454	100.66	-174.302	69.3463	88.4789	
156	1.3	-125.172	76.952	84.8386	-107.792	85.2234	62.1651	-86.329	102.699	38.2978	-71.7633	109.644	19.6707	-174.309	112.882	27.9447	-179.201	130.833	6.58477	-180.327	142.211	-20.0547	-188.837	89.4816	5.87328	-168.116	77.9216	-19.657	-146.164	58.1181	9.9268	-193.8	66.7739	2.47413	-169.096	59.0273	-15.3716	-152.656	44.4876	14.0036	-195.143	45.9067	16.0208	-176.082	41.6205	-9.15598	-154.203	25.202	10.7377	-192.909	53.3322	65.3561	-185.703	43.4741	97.8101	-170.499	74.3478	84.4879	
157	1.30833	-120.308	73.0206	86.7455	-102.354	77.0276	63.3584	-81.0187	92.1791	36.0459	-70.5242	96.8558	13.924	-163.246	116.369	30.1794	-167.833	133.429	7.48304	-168.737	147.616	-20.9135	-185.04	92.429	9.44772	-164.994	80.5109	-20.024	-147.999	57.7633	11.9325	-193.743	69.7429	3.72448	-172.435	59.8632	-15.7565	-156.612	43.8524	14.1399	-200.143	50.8474	13.0485	-179.477	43.5197	-10.1072	-160.054	31.1433	13.0974	-195.566	57.2363	64.5037	-188.919	45.6009	97.3327	-163.456	77.6239	87.2197	
158	1.31667	-122.464	68.9754	80.7016	-100.432	74.4518	57.1419	-83.3117	81.2348	32.9738	-68.6724	85.9897	12.0662	-163.043	114.71	25.0318	-164.596	132.453	1.9635	-166.325	143.54	-23.9695	-182.395	94.5045	2.88084	-168.027	78.5864	-22.448	-151.184	54.1564	6.66421	-194.552	71.3879	-0.581078	-174.27	57.651	-17.7256	-159.612	40.0347	9.42896	-203.933	50.9771	11.4412	-186.03	38.6899	-11.4686	-165.622	25.3028	13.4291	-193.813	57.8317	66.7793	-190.949	47.3931	97.6289	-164.173	78.3816	84.3794	
159	1.325	-121.816	64.9586	79.1799	-101.527	69.4697	51.318	-83.7407	76.2556	23.8475	-70.6872	77.3032	3.03253	-159.688	108.674	21.7217	-164.347	128.49	-6.26168	-167.904	134.58	-29.9655	-186.542	86.9031	3.14432	-172.631	67.3596	-24.7059	-153.191	48.5827	5.44083	-198.313	65.2811	0.938337	-178.379	51.9597	-19.5225	-162.957	37.0799	9.76197	-205.959	48.8164	12.7689	-188.662	36.5136	-10.6442	-167.766	22.5764	8.16256	-197.476	58.0375	66.2641	-192.799	49.8352	95.8217	-167.126	75.775	79.8155	
160	1.33333	-124.801	60.2062	75.0636	-105.448	61.5329	47.6121	-85.3717	65.2986	18.3256	-73.8669	65.8174	-7.13646	-166.271	101.902	12.6297	-166.846	117.037	-11.5303	-170.028	126.56	-41.0192	-188.311	80.8362	-3.86412	-176.319	58.7432	-27.7138	-157.597	39.2252	4.6577	-201.16	59.866	1.47088	-186.001	37.6392	-20.5738	-168.937	27.2015	6.28925	-212.026	40.5626	14.2584	-194.413	24.4007	-12.0081	-171.906	14.8509	10.9595	-196.966	59.6291	60.7846	-189.183	50.9666	94.4354	-164.931	75.5824	78.2291	
161	1.34167	-126.084	55.8316	69.686	-104.031	52.8263	42.5907	-89.3489	51.9164	11.7484	-76.9401	49.7398	-11.0877	-163.673	91.3829	5.9728	-166.207	103.669	-19.2549	-173.162	109.432	-50.6693	-191.831	68.7092	-4.18496	-184.042	45.1741	-30.4854	-163.138	25.5943	-0.997971	-207.107	50.2158	-3.05359	-191.624	31.2558	-21.8373	-173.448	16.6788	8.12108	-215.715	33.7742	16.4705	-203.115	19.5567	-10.5549	-181.721	2.01957	7.78665	-199.681	54.0055	58.524	-194.803	48.5602	91.1687	-169.2	70.1608	71.2193	
162	1.35	-128.248	51.143	64.4469	-107.618	44.1259	37.5659	-89.1951	39.229	11.5165	-80.9799	33.6161	-10.9006	-165.284	80.5624	-1.35856	-171.583	88.7155	-32.392	-174.969	92.8546	-59.7552	-194.82	57.6514	-11.5835	-182.716	29.9634	-33.1353	-163.525	13.4505	-3.34074	-206.898	39.1987	-6.89025	-196.918	15.9903	-20.4764	-176.664	4.36274	6.70594	-220.019	26.8613	14.2801	-209.307	4.84379	-9.17308	-183.651	-8.48441	12.4423	-201.027	49.522	58.5576	-194.427	49.5261	88.778	-164.98	68.3471	68.0089	
163	1.35833	-126.7	44.8497	60.347	-110.355	32.9691	38.8835	-91.6294	24.825	6.0667	-80.8668	15.6388	-10.4161	-166.482	66.3201	-7.57011	-171.361	72.4443	-37.2316	-174.598	74.6232	-62.2828	-194.439	44.8952	-13.6088	-190.367	15.7104	-31.3481	-166.851	-0.339154	-3.11462	-209.94	27.6113	-2.27467	-199.732	3.78944	-19.1788	-176.45	-4.34432	10.4544	-218.982	17.9828	17.1566	-210.795	-4.38394	-5.53237	-189.887	-17.431	13.6704	-202.439	46.3402	58.1947	-190.87	49.4562	89.0764	-163.943	62.4197	64.7439	
164	1.36667	-128.217	36.1816	59.2326	-111.156	20.3793	39.2258	-97.0028	6.8978	9.94191	-81.7983	-3.3091	-7.03573	-164.332	54.1012	-12.2077	-166.521	57.382	-39.5579	-171.943	56.1785	-64.3149	-193.035	33.7489	-12.3707	-190.631	-0.178004	-28.0028	-170.508	-13.1997	5.35733	-210.7	16.8581	-1.74417	-204.143	-11.8857	-12.7915	-180.688	-15.9859	13.7408	-222.666	8.79399	21.3955	-210.423	-15.8021	0.38924	-187.03	-24.2048	22.7618	-201.485	40.3089	57.3828	-193.622	47.2054	90.3841	-165.323	57.7307	58.4773	
165	1.375	-125.501	29.8841	59.4482	-112.066	10.2657	41.311	-95.6396	-7.75831	14.1492	-83.6672	-21.6058	-1.2625	-161.413	40.9643	-9.48818	-166.805	40.0077	-41.454	-171.26	38.4783	-66.4	-194.999	20.0753	-11.6072	-189.731	-15.0932	-22.9943	-168.429	-24.1109	8.24625	-207.378	7.70829	-1.53731	-200.269	-22.9206	-7.66001	-180.575	-24.7829	20.5606	-220.499	2.24226	20.274	-215.748	-27.322	7.89571	-191.427	-31.5431	28.9461	-202.238	38.5186	56.7362	-191.395	48.0122	84.5051	-166.606	52.5688	58.3856	
166	1.38333	-121.016	24.0736	64.5214	-104.998	3.09737	48.4577	-87.3478	-15.954	23.5116	-82.4419	-32.903	8.58974	-156.252	30.5346	-6.47798	-158.81	28.9232	-38.3631	-159.111	27.5683	-66.7615	-189.419	12.0632	-11.9439	-185.068	-23.1567	-18.6064	-166.839	-31.2873	16.4587	-208.17	1.54282	3.97108	-198.402	-27.635	-4.3122	-182.391	-31.9304	27.1244	-220.271	-4.93202	22.7497	-207.116	-32.4483	12.863	-189.81	-38.7968	37.7833	-199.191	34.8333	58.3278	-186.902	45.2831	86.8629	-158.194	46.629	57.5163	
167	1.39167	-118.33	26.2321	73.8036	-102.405	4.0765	52.3498	-82.7906	-13.3768	33.7396	-72.646	-31.0415	16.2841	-150.994	33.6906	-6.53032	-153.061	31.0918	-34.8699	-154.093	27.7949	-61.8228	-184.684	12.8371	-7.2367	-179.765	-20.1374	-17.1442	-163.949	-29.9541	20.7967	-198.527	4.04907	6.226	-192.827	-27.8192	-2.827	-175.991	-30.6585	30.5148	-211.593	-1.65074	25.2015	-205.365	-32.4209	13.7413	-186.257	-40.7463	39.4129	-195.709	34.9324	57.9553	-186.778	44.291	90.0499	-155.985	46.8125	61.2736	
168	1.4	-119.683	28.7607	75.8044	-99.5596	10.3674	62.0146	-82.6498	-8.21607	36.0887	-65.7761	-21.9151	22.7372	-145.508	40.6133	-0.0312708	-147.063	39.6635	-30.3667	-148.078	37.6505	-56.542	-175.407	19.8845	-6.46652	-171.401	-13.2169	-17.0058	-154.799	-23.9761	22.3344	-193.174	6.42934	2.08904	-181.743	-20.1595	-3.54101	-168.957	-25.6433	26.8663	-207.171	1.60723	24.7028	-194.497	-27.1701	10.9392	-178.265	-34.0668	34.8246	-191.806	36.7815	62.2839	-188.639	44.4704	92.5918	-154.659	53.1763	68.4884	
169	1.40833	-113.73	35.2311	84.7043	-99.1012	16.2468	61.8693	-79.7556	0.907553	38.3018	-64.553	-12.0552	26.7139	-139.869	51.3034	5.08148	-136.207	53.3297	-23.9858	-136.2	51.2387	-49.9217	-172.222	30.4573	-2.30203	-160.258	-2.11998	-17.2437	-148.639	-16.4329	16.4835	-186.781	19.0758	6.30838	-179.427	-11.4827	-5.68621	-163.954	-18.2311	30.7775	-198.885	10.8445	22.5131	-191.566	-18.1535	8.40545	-174.458	-28.7956	32.3679	-187.249	41.4673	64.337	-185.102	50.5391	96.2695	-155.117	57.6095	72.9177	
170	1.41667	-112.514	40.5643	84.0995	-91.0239	23.0811	68.1236	-74.1557	9.29869	45.8771	-60.4692	-5.05267	25.3532	-135.877	62.7926	7.06253	-132.225	66.157	-18.2773	-130.807	66.4081	-46.8	-167.281	42.8431	-2.69769	-154.452	11.7103	-18.363	-148.493	-5.25533	16.2624	-184.06	28.1057	2.11176	-170.828	0.765751	-6.01833	-159.869	-7.75813	24.2344	-199.365	20.0088	23.4216	-186.057	-2.50232	4.76045	-168.738	-17.3782	31.0383	-188.156	46.0137	66.6501	-186.733	52.893	98.6025	-153.252	63.4025	78.568	
171	1.425	-111.04	45.5829	88.4227	-93.9089	27.4325	68.2858	-75.644	14.3244	42.175	-63.1879	2.65356	27.4619	-131.741	74.3145	10.8886	-130.189	78.3503	-14.2456	-126.843	82.1339	-43.0788	-162.77	56.5347	0.118437	-154.221	29.6995	-19.3251	-143.122	6.74106	15.3139	-178.424	42.8275	5.55349	-171.038	17.6946	-9.77962	-157.45	3.40821	25.3119	-195.976	30.8342	23.9245	-182.064	7.69876	1.96887	-167.439	-6.7478	24.6073	-186.36	54.2986	64.2141	-183.78	58.4628	102.692	-147.254	68.7178	82.3665	
172	1.43333	-111.113	48.674	87.8747	-90.1509	31.3258	68.1576	-75.4345	19.6111	39.7738	-60.2371	6.28999	23.923	-130.829	83.0974	17.8867	-128.036	91.7976	-10.3782	-121.735	96.5778	-36.2107	-162.771	67.2451	3.68165	-152.209	41.6783	-19.5031	-142.951	18.5407	15.4499	-176.909	54.4441	2.40774	-168.081	27.6664	-9.71083	-159.969	13.7199	21.5629	-197.604	40.3138	21.4484	-181.552	17.4103	0.696349	-167.143	0.438455	27.1535	-181.104	63.6196	65.5937	-184.052	62.8472	100.145	-151.382	73.2861	84.6906	
173	1.44167	-114.73	50.539	83.5371	-97.7017	32.2215	59.8689	-76.7972	19.1077	33.4417	-68.9233	7.29867	16.6021	-133.066	90.4375	17.5074	-125.915	102.402	-12.8735	-126.062	106.369	-37.1314	-163.413	77.3247	3.19363	-155.35	50.1763	-20.5869	-144.082	27.9505	12.181	-178.925	63.726	6.17843	-174.935	38.2473	-12.3302	-158.095	24.2472	19.4536	-197.103	52.2029	19.1933	-183.97	28.8438	-0.920447	-171.592	10.2111	23.8138	-180.874	71.6014	68.8832	-181.319	66.889	97.9171	-146.031	80.0154	81.8166	
174	1.45	-116.31	49.7963	78.3182	-103.922	31.4442	53.2413	-85.3437	15.5578	25.9719	-82.7299	4.26738	6.84059	-131.575	93.7928	17.3007	-130.538	104.647	-14.0342	-126.587	111.364	-41.6058	-166.6	83.6547	1.70179	-162.837	55.6117	-21.8152	-154.163	31.9151	5.57318	-186.955	69.7772	3.43262	-175.793	45.7461	-12.5821	-165.953	29.4878	17.3596	-202.292	59.0012	19.3489	-190.208	38.488	-2.71106	-177.773	18.2554	20.4904	-186.25	76.3631	66.1038	-183.102	71.6124	99.3079	-147.225	81.483	81.7317	
175	1.45833	-118.86	48.1153	75.6644	-106.768	26.0532	47.3088	-99.5635	9.15329	20.1189	-91.0844	-6.45953	1.37548	-140.195	92.2658	9.11193	-132.498	101.44	-15.6612	-130.942	108.325	-45.0099	-173.259	84.1838	-2.21923	-173.984	58.7139	-26.0642	-160.476	30.958	4.87044	-191.51	71.0589	2.8517	-184.286	46.1565	-13.9595	-172.886	29.4682	12.6809	-209.36	61.8326	18.8655	-200.792	39.4395	-2.47069	-184.533	19.134	18.6886	-184.953	76.0963	68.7373	-180.184	74.0963	97.1948	-147.929	81.5877	78.3854	
